<svg width="50" height="50" viewBox="0 0 50 50" fill="none" xmlns="http://www.w3.org/2000/svg">
<path d="M25 0C21.9398 0 19.005 1.21566 16.8411 3.37954C14.6772 5.54342 13.4615 8.47827 13.4615 11.5385C13.4615 17.9115 23.4981 33.7365 23.4981 42.3077H26.5019C26.5019 33.7654 36.5385 17.3923 36.5385 11.5385C36.5385 8.47827 35.3228 5.54342 33.1589 3.37954C30.995 1.21566 28.0602 0 25 0V0ZM25 5.76923C26.5301 5.76923 27.9975 6.37706 29.0795 7.459C30.1614 8.54094 30.7692 10.0084 30.7692 11.5385C30.7692 13.0686 30.1614 14.536 29.0795 15.6179C27.9975 16.6999 26.5301 17.3077 25 17.3077C23.4699 17.3077 22.0025 16.6999 20.9205 15.6179C19.8386 14.536 19.2308 13.0686 19.2308 11.5385C19.2308 10.0084 19.8386 8.54094 20.9205 7.459C22.0025 6.37706 23.4699 5.76923 25 5.76923V5.76923ZM13.1615 33.2327C13.1204 33.2518 13.08 33.2723 13.0404 33.2942C9.49231 33.9173 6.48462 34.7712 4.20769 35.9385C3.06731 36.5212 2.08462 37.2115 1.32308 38.0404C0.559615 38.8712 0 39.95 0 41.1654C0 42.9885 1.20769 44.4135 2.64423 45.4327C4.08077 46.4519 5.89423 47.2308 8.11346 47.8962C12.5462 49.2269 18.4712 50 25 50C31.5288 50 37.4538 49.2269 41.8865 47.8962C44.1038 47.2308 45.9192 46.4538 47.3558 45.4327C48.7923 44.4135 50 42.9885 50 41.1654C50 39.9462 49.4423 38.8115 48.6769 37.9808C47.9115 37.15 46.9385 36.5212 45.7923 35.9365C43.5038 34.7692 40.4673 33.9154 36.8981 33.2923C36.6471 33.2437 36.389 33.2456 36.1388 33.2978C35.8886 33.3501 35.6513 33.4518 35.4408 33.5969C35.2303 33.7419 35.0509 33.9275 34.913 34.1428C34.7751 34.358 34.6815 34.5986 34.6376 34.8504C34.5938 35.1022 34.6006 35.3603 34.6576 35.6094C34.7147 35.8586 34.8208 36.0939 34.9699 36.3016C35.1189 36.5093 35.3079 36.6851 35.5257 36.8189C35.7435 36.9527 35.9858 37.0417 36.2385 37.0808C39.5519 37.6577 42.3058 38.475 44.05 39.3635C44.9231 39.8058 45.5365 40.2808 45.8538 40.625C46.1712 40.9692 46.1538 41.1058 46.1538 41.1654C46.1538 41.2558 46.0308 41.6712 45.1327 42.3077C44.2346 42.9442 42.7038 43.6423 40.7442 44.2308C36.8269 45.4058 31.2154 46.1538 25 46.1538C18.7846 46.1538 13.1731 45.4058 9.25385 44.2308C7.29615 43.6423 5.76538 42.9442 4.86923 42.3077C3.96923 41.6712 3.84615 41.2558 3.84615 41.1654C3.84615 41.1077 3.83269 40.9673 4.14615 40.625C4.46154 40.2827 5.08269 39.8058 5.95 39.3635C7.68077 38.4769 10.4077 37.6596 13.7019 37.0788C13.9582 37.0477 14.2057 36.9659 14.4299 36.838C14.6542 36.7101 14.8507 36.5389 15.008 36.3342C15.1652 36.1295 15.2802 35.8955 15.346 35.6459C15.4118 35.3963 15.4272 35.1361 15.3913 34.8805C15.3554 34.6248 15.2688 34.3789 15.1368 34.1571C15.0047 33.9353 14.8298 33.7421 14.6222 33.5886C14.4146 33.4352 14.1785 33.3247 13.9277 33.2636C13.6769 33.2025 13.4164 33.192 13.1615 33.2327V33.2327Z" fill="black"/>
</svg>
