<svg xmlns="http://www.w3.org/2000/svg" xmlns:svg="http://www.w3.org/2000/svg" id="svg5070" width="50" height="50" version="1.1" viewBox="0 0 13.229 13.229"><metadata id="metadata5067"/><g id="layer1" transform="translate(-6.6734281,-130.67906)"><path style="fill:#8bc8df;stroke-width:.0132414" id="path4" d="m 13.389617,131.37262 c -3.481857,0 -6.3058488,2.76814 -6.3058488,6.18403 0,3.41591 2.8226538,6.18404 6.3058488,6.18404 3.483193,0 6.305845,-2.76813 6.305845,-6.18404 0,-3.41589 -2.823989,-6.18403 -6.305845,-6.18403 z m 0,10.49818 c -2.429545,0 -4.4004542,-1.93154 -4.4004542,-4.31545 0,-2.38393 1.9695722,-4.31545 4.4004542,-4.31545 2.430882,0 4.400452,1.93152 4.400452,4.31545 0,2.38391 -1.970909,4.31545 -4.400452,4.31545 z"/><path style="fill:#612e1d;stroke-width:.0132414" id="path6" d="m 7.297707,136.06835 c -0.00935,0 -0.020058,-0.001 -0.030753,-0.004 -0.062845,-0.0157 -0.098947,-0.0787 -0.082902,-0.1403 0.4532828,-1.65879 1.5978549,-3.08285 3.143565,-3.90634 0.05616,-0.0302 0.128363,-0.009 0.159117,0.0459 0.03077,0.0551 0.0093,0.12588 -0.04679,0.15604 -1.4882116,0.79333 -2.5926734,2.16494 -3.0285738,3.76341 -0.01471,0.0512 -0.061507,0.0852 -0.1136546,0.0852 z"/><path style="fill:#612e1d;stroke-width:.0132414" id="path8" d="m 13.389617,143.85477 c -2.372046,0 -4.5421887,-1.27457 -5.6640321,-3.32804 -0.030754,-0.0564 -0.00937,-0.12589 0.048136,-0.15473 0.057496,-0.0302 0.1283633,-0.009 0.1577803,0.0472 1.080391,1.97742 3.1716438,3.2061 5.4581158,3.2061 2.275775,0 4.363013,-1.22082 5.446079,-3.18512 0.03077,-0.0551 0.101628,-0.076 0.159117,-0.0459 0.0575,0.0302 0.07756,0.0997 0.0468,0.15605 -1.124516,2.03774 -3.29065,3.30444 -5.651999,3.30444 z"/><path style="fill:#612e1d;stroke-width:.0132414" id="path10" d="m 19.671393,137.12918 c -0.06017,0 -0.110982,-0.0446 -0.11633,-0.1049 -0.181842,-2.05873 -1.406645,-3.86568 -3.274597,-4.83604 -0.0575,-0.0301 -0.07889,-0.0997 -0.04813,-0.15473 0.03077,-0.0564 0.101616,-0.0774 0.157779,-0.0472 0.933307,0.48517 1.73959,1.19589 2.330597,2.05741 0.604378,0.87987 0.973423,1.90399 1.067017,2.96089 0.0053,0.063 -0.04145,0.11932 -0.106964,0.12457 -0.0027,-0.001 -0.0067,0 -0.0093,0 z"/><g id="g34" transform="matrix(0.0110505,0,0,0.01276191,-2.2391052,127.83525)"><polygon style="fill:#fbfaed" id="polygon12" points="1401.2 1140 1555.4 669 1479.6 652.6 1220.1 554.7 1270.5 728.5"/><polygon style="fill:#612e1d" id="polygon14" points="1555.4 669 1479.6 652.6 1281.4 577.8 1414.3 1099.8"/><g id="g18"><path style="fill:#fff" id="path16" d="m 1289.5,606.4 6.1,25.1 -0.5,0.1 1.4,5.5 0.4,-0.1 6.1,25.1 h -0.1 l 1.4,5.5 v 0 l 1,4 109,428.2 0.2,-0.7 -0.9,-3.8 2.3,-0.6 2.1,-6.3 -5.7,1.4 -6.1,-25.1 21.3,-5.1 2.1,-6.3 -24.7,6 -6.1,-25.1 25.1,-6.1 5.9,24.4 3.3,-10.2 -3.7,-15.5 9.6,-2.3 2.1,-6.3 -13,3.1 -6.1,-25.1 25.1,-6.1 1.3,5.4 4.1,-12.6 -1.3,0.3 -6.1,-25.1 16.8,-4.1 2.1,-6.3 -20.2,4.9 -6.1,-25.1 25.1,-6.1 4.2,17.2 3.3,-10.2 -2,-8.3 5.1,-1.2 2.1,-6.3 -8.5,2.1 -6.1,-25.1 24.1,-5.8 4,-12.2 -4.8,-20 12.4,-3 2.1,-6.3 -15.8,3.8 -6.2,-25.5 25.1,-6.1 2.5,10.4 3.3,-10.2 -0.4,-1.5 0.9,-0.2 2.1,-6.3 -4.3,1 -6.1,-25.1 19.9,-4.8 2.1,-6.3 -23.2,5.6 -6.1,-25.1 25.1,-6.1 5.3,22.1 3.3,-10.2 -3.2,-13.2 8.2,-2 2.1,-6.3 -11.6,2.8 -6.1,-25.1 25.1,-6.1 0.8,3.2 3.3,-10.2 -6,-24.9 15.4,-3.7 1,-3 -6.7,-1.5 -11,2.7 -1.3,-5.3 -6.1,-1.3 1.9,7.9 -25.1,6.1 -4.9,-20.1 -6.1,-1.3 5.5,22.7 -25.1,6.1 -6.1,-25.1 20.2,-4.9 -10.9,-2.3 -1.3,-0.5 -9.3,2.2 -1.5,-6.3 -6.4,-2.4 2.4,10.1 -25.1,6.1 -6.1,-25.1 3,-0.7 -9.9,-3.7 0.1,0.3 -25.1,6.1 -4.2,-17.5 -6.4,-2.4 5.1,21.2 -25.1,6.1 -6.1,-25.1 19.4,-4.7 -9.4,-3.5 -11.3,2.7 -1.9,-7.7 -6.4,-2.4 2.8,11.5 -25.1,6.1 -6.1,-25.1 5.1,-1.2 -12.3,-4.6 0.4,1.7 -25.1,6.1 -4.6,-18.8 -6.4,-2.4 5.5,22.6 -0.8,0.2 1.4,5.5 z m 20.3,59.9 25.1,-6.1 6.1,25.1 -25.1,6.1 z m 7.4,30.6 25.1,-6.1 6.1,25.1 -25.1,6.1 z m 70.6,47.7 6.1,25.1 -25.1,6.1 -6.1,-25.1 z m -26.5,0.6 -6.1,-25.1 25.1,-6.1 6.1,25.1 z m 45.5,53.9 -6.1,-25.1 25.1,-6.1 6.1,25.1 z m 26.4,-0.6 6.1,25.1 -25.1,6.1 -6.1,-25.1 z m -33.8,-30.1 -6.1,-25.1 25.1,-6.1 6.1,25.1 z m -4.2,6.9 6.1,25.1 -25.1,6.1 -6.1,-25.1 z m 7.4,30.6 6.1,25.1 -25.1,6.1 -6.1,-25.1 z m 7.4,30.6 6.2,25.5 -25.1,6.1 -6.2,-25.5 z m 7.5,31 6.1,25.1 -25.1,6.1 -6.1,-25.1 z m 7.4,30.6 6.1,25.1 -25.1,6.1 -6.1,-25.1 z m -1.9,-31.9 25.1,-6.1 6.1,25.1 -25.1,6.1 z m -1.3,-5.5 -6.2,-25.5 25.1,-6.1 6.2,25.5 z m 17,-63.6 25.1,-6.1 6.1,25.1 -25.1,6.1 z m -1.3,-5.4 -6.1,-25.1 25.1,-6.1 6.1,25.1 z m 17.1,-63.2 25.1,-6.1 6.1,25.1 -25.1,6.1 z m 0.6,26.4 -25.1,6.1 -6.1,-25.1 25.1,-6.1 z m -32.5,-24.5 -6.1,-25.1 25.1,-6.1 6.1,25.1 z m -5.5,1.3 -25.1,6.1 -6.1,-25.1 25.1,-6.1 z m -32.6,-24.5 -6.1,-25.1 25.1,-6.1 6.1,25.1 z m -5.4,1.3 -25.1,6.1 -6.1,-25.1 25.1,-6.1 z m -54.5,19 25.1,-6.1 6.1,25.1 -25.1,6.1 z m 7.4,30.6 25.1,-6.1 6.1,25.1 -25.1,6.1 z m 7.5,30.6 25.1,-6.1 6.1,25.1 -25.1,6.1 z m 7.4,30.7 25.1,-6.1 6.1,25.1 -25.1,6.1 z m 7.4,30.6 25.1,-6.1 6.2,25.5 -25.1,6.1 z m 7.5,31 25.1,-6.1 6.1,25.1 -25.1,6.1 z m 7.4,30.6 25.1,-6.1 6.1,25.1 -25.1,6.1 z m 7.4,30.6 25.1,-6.1 6.1,25.1 -25.1,6.1 z m 7.4,30.7 25.1,-6.1 6.1,25.1 -25.1,6.1 z m 38.6,49.6 -25.1,6.1 -6.1,-25.1 25.1,-6.1 z m 23.2,-38 -25.1,6.1 -6.1,-25.1 25.1,-6.1 z m -7.4,-30.6 -25.1,6.1 -6.1,-25.1 25.1,-6.1 z m 23.3,-38 -25.1,6.1 -6.1,-25.1 25.1,-6.1 z m 23.2,-38.1 -25.1,6.1 -6.1,-25.1 25.1,-6.1 z m -7.4,-30.6 -25.1,6.1 -6.2,-25.5 25.1,-6.1 z m 23.1,-38.4 -25.1,6.1 -6.1,-25.1 25.1,-6.1 z m -7.4,-30.6 -25.1,6.1 -6.1,-25.1 25.1,-6.1 z m 23.2,-38.1 -25.1,6.1 -6.1,-25.1 25.1,-6.1 z m 17.1,-63.1 6.1,25.1 -25.1,6.1 -6.1,-25.1 z m -30.6,7.4 6.1,25.1 -25.1,6.1 -6.1,-25.1 z m -24.6,32.5 -25.1,6.1 -6.1,-25.1 25.1,-6.1 z m -13.5,-55.7 6.1,25.1 -25.1,6.1 -6.1,-25.1 z m -24.5,32.5 -25.1,6.1 -6.1,-25.1 25.1,-6.1 z m -13.5,-55.7 6.1,25.1 -25.1,6.1 -6.1,-25.1 z m -30.6,7.4 6.1,25.1 -25.1,6.1 -6.1,-25.1 z m -24.5,32.5 -25.1,6.1 -6.1,-25.1 25.1,-6.1 z m -13.5,-55.7 6.1,25.1 -25.1,6.1 -6.1,-25.1 z m -24.6,32.5 -25.1,6.1 -6.1,-25.1 25.1,-6.1 z m -13.5,-55.8 6.1,25.1 -25.1,6.1 -6.1,-25.1 z"/></g><path style="fill:#612e1d" id="path20" d="m 1548.8,609.8 -94.7,305.9 v 0 c -1.5,4 -2.9,8 -4.4,12 -3.5,9.7 -7,19.4 -10.5,29.2 -3.5,9.7 -6.9,19.5 -10.3,29.2 l -10.1,29.3 c -3.3,9.8 -6.7,19.5 -9.9,29.3 l -4.9,14.7 v 0 c -1,2.9 -5.1,3 -6.1,0 l -1,-3 -8.8,-25.5 -8.9,-25.5 c -3,-8.5 -6,-17 -9,-25.4 -6.1,-17 -12.2,-33.9 -18.5,-50.8 -3.1,-8.4 -6.3,-16.9 -9.5,-25.3 l -9.6,-25.3 c -3.2,-8.4 -6.5,-16.8 -9.8,-25.2 -3.2,-8.4 -6.6,-16.8 -10,-25.2 l -5,-12.6 -5.1,-12.5 c -3.4,-8.4 -6.9,-16.7 -10.4,-25 -1.7,-4.2 -3.5,-8.3 -5.3,-12.5 -1.8,-4.2 -3.5,-8.3 -5.4,-12.5 -3.6,-8.3 -7.3,-16.6 -11.1,-24.8 1.6,8.9 3.4,17.8 5.3,26.6 0.9,4.4 1.9,8.8 2.8,13.3 0.9,4.4 1.9,8.8 2.9,13.2 2,8.8 3.9,17.6 6,26.4 l 3,13.2 3.1,13.2 c 2.1,8.8 4.2,17.5 6.4,26.3 2.2,8.7 4.3,17.5 6.5,26.2 l 6.7,26.2 c 2.2,8.7 4.6,17.4 6.9,26.1 4.6,17.4 9.4,34.8 14.2,52.1 2.4,8.7 4.9,17.3 7.3,26 l 7.4,26 7.6,25.9 7.7,25.9 7.8,25.8 7.9,25.8 c 2.7,8.7 10.8,15.8 21.6,15.7 9.5,-0.1 17.8,-6.4 20.8,-15.4 l 0.1,-0.2 c 3.3,-9.8 6.6,-19.6 9.8,-29.4 3.2,-9.8 6.5,-19.6 9.7,-29.4 l 4.8,-14.7 4.7,-14.8 c 3.2,-9.8 6.2,-19.7 9.3,-29.5 l 9.1,-29.6 c 3,-9.9 6,-19.8 9,-29.7 3,-9.9 5.9,-19.8 8.8,-29.7 2.9,-9.9 5.8,-19.8 8.6,-29.8 l 4.2,-14.9 4.2,-14.9 c 2.7,-10 5.5,-19.9 8.1,-29.9 2.7,-10 5.3,-20 7.9,-30 2.6,-10 5.1,-20 7.7,-30.1 2.6,-10 4.9,-20.1 7.4,-30.2 1.2,-5 2.4,-10.1 3.6,-15.1 1.2,-5.1 2.4,-10.1 3.5,-15.2 l 3.4,-15.2 3.3,-15.2 c 2.1,-10.2 4.2,-20.3 6.1,-30.6 z"/><path style="fill:#612e1d" id="path22" d="m 1634.8,547 c 0,-20.9 -12.6,-38.9 -30.7,-46.7 0,-1.1 0,-2.2 0,-3.3 0,-102.6 -83.1,-185.7 -185.7,-185.7 -102.6,0 -185.7,83.1 -185.7,185.7 0,0.4 0,0.8 0,1.3 -21,6.3 -36.2,25.8 -36.2,48.8 0,21.1 12.8,39.1 31,46.9 -1.6,5.4 -2.5,11 -2.5,16.9 0,32.1 26,58.1 58.1,58.1 8,0 15.7,-1.6 22.6,-4.6 3.9,28.6 28.4,50.5 58,50.5 22.4,0 41.9,-12.6 51.8,-31.2 9.8,18.5 29.3,31.2 51.8,31.2 29.6,0 54.1,-22 58,-50.5 7,2.9 14.6,4.6 22.6,4.6 32.1,0 58.1,-26 58.1,-58.1 0,-5.9 -0.9,-11.6 -2.5,-16.9 18.5,-7.8 31.3,-25.9 31.3,-47 z"/><path style="fill:#ef799b" id="path24" d="m 1612.3,543.5 c 0,-18.8 -11.3,-34.9 -27.5,-41.9 0,-1 0,-2 0,-3 0,-92 -74.6,-166.6 -166.6,-166.6 -92,0 -166.6,74.6 -166.6,166.6 0,0.4 0,0.8 0,1.1 -18.8,5.7 -32.5,23.1 -32.5,43.8 0,18.9 11.5,35.1 27.8,42.1 -1.5,4.8 -2.2,9.9 -2.2,15.2 0,28.8 23.4,52.2 52.2,52.2 7.2,0 14.1,-1.5 20.3,-4.1 3.5,25.6 25.5,45.4 52.1,45.4 20.1,0 37.6,-11.3 46.5,-28 8.8,16.6 26.3,28 46.5,28 26.6,0 48.6,-19.7 52.1,-45.4 6.2,2.6 13.1,4.1 20.3,4.1 28.8,0 52.2,-23.4 52.2,-52.2 0,-5.3 -0.8,-10.4 -2.2,-15.2 16.1,-6.9 27.6,-23.2 27.6,-42.1 z"/><path style="fill:#fbfaed" id="path26" d="m 1285.4,477.5 c 18,-73.3 92.1,-118.1 165.4,-100.1 35.1,8.6 63.7,30.2 82,58.3 -14.4,-41.1 -48.6,-74.3 -94,-85.5 -71.5,-17.6 -143.6,26.1 -161.2,97.6 -6.7,27.3 -4.5,54.6 4.8,79 -1.9,-16 -1.1,-32.7 3,-49.3 z"/><circle style="fill:#fbfaed" id="circle28" cx="1376.6" cy="404.6" r="36.8"/><path style="fill:#fbfaed" id="path30" d="m 1270.5,543 c 0,0 1.1,0.5 3.3,1.5 2.1,1 5.2,2.5 9.2,4.2 2,0.9 4.1,1.8 6.5,2.9 2.4,1 5,2.1 7.7,3.2 5.5,2.2 11.8,4.7 18.7,7.1 3.4,1.2 7,2.4 10.8,3.6 1.9,0.6 3.8,1.1 5.7,1.7 1.9,0.6 3.9,1.2 5.9,1.7 4,1 8.1,2.3 12.3,3.2 1.1,0.2 2.1,0.5 3.2,0.7 1.1,0.2 2.1,0.5 3.2,0.7 2.2,0.4 4.3,0.9 6.5,1.4 2.2,0.5 4.4,0.8 6.7,1.2 1.1,0.2 2.2,0.4 3.4,0.6 1.1,0.2 2.3,0.4 3.4,0.5 2.3,0.3 4.6,0.6 6.9,1 2.3,0.3 4.6,0.5 7,0.8 4.7,0.6 9.4,0.7 14.1,1.2 4.7,0.1 9.5,0.5 14.2,0.4 2.4,0 4.7,0.1 7.1,0 2.5,0 4.8,-0.1 7.2,-0.2 4.8,-0.2 9.5,-0.5 14.2,-0.9 2.4,-0.2 4.7,-0.4 7,-0.7 2.3,-0.2 4.6,-0.5 6.9,-0.7 4.6,-0.5 9.1,-1.2 13.6,-1.9 8.9,-1.4 17.4,-3.1 25.4,-5.1 8,-1.9 15.5,-4.2 22.3,-6.5 6.8,-2.3 13,-4.8 18.3,-7.3 5.4,-2.4 9.9,-4.9 13.7,-7 3.7,-2.2 6.6,-3.9 8.5,-5.3 1,-0.7 1.7,-1.1 2.2,-1.5 0.5,-0.3 0.8,-0.5 0.8,-0.5 0,0 -0.2,0.3 -0.6,0.7 -0.4,0.5 -0.9,1.2 -1.7,2.1 -0.7,0.9 -1.7,2 -2.9,3.2 -1.1,1.3 -2.6,2.6 -4.1,4.2 -3.2,3 -7.3,6.5 -12.3,10.1 -5,3.6 -11,7.3 -17.7,10.8 -3.4,1.8 -7,3.5 -10.7,5.2 -3.8,1.7 -7.7,3.2 -11.8,4.7 -4.1,1.5 -8.4,2.9 -12.8,4.2 -4.4,1.3 -8.9,2.5 -13.6,3.6 -4.6,1.1 -9.4,2.1 -14.2,2.9 -2.4,0.4 -4.8,0.8 -7.3,1.2 -2.5,0.3 -4.9,0.7 -7.4,0.9 -5,0.6 -10,1.1 -15,1.3 -2.5,0.1 -5.2,0.3 -7.6,0.3 l -1.9,0.1 h -1.9 -3.8 c -5.1,0.1 -10.2,-0.3 -15.3,-0.5 -2.5,-0.2 -5.1,-0.5 -7.6,-0.7 -1.3,-0.1 -2.5,-0.2 -3.8,-0.4 -1.2,-0.2 -2.5,-0.4 -3.7,-0.5 -1.2,-0.2 -2.5,-0.4 -3.7,-0.5 -1.2,-0.2 -2.5,-0.3 -3.7,-0.6 -2.4,-0.5 -4.9,-0.9 -7.3,-1.4 -1.2,-0.2 -2.4,-0.5 -3.6,-0.8 -1.2,-0.3 -2.4,-0.6 -3.6,-0.8 -2.4,-0.6 -4.7,-1.1 -7,-1.8 -2.3,-0.7 -4.6,-1.3 -6.8,-2 -2.2,-0.6 -4.4,-1.4 -6.6,-2.2 -4.3,-1.4 -8.5,-3.1 -12.6,-4.6 -2,-0.8 -4,-1.7 -5.9,-2.5 -1.9,-0.9 -3.8,-1.7 -5.7,-2.5 -1.8,-0.9 -3.6,-1.8 -5.4,-2.7 -1.8,-0.9 -3.5,-1.7 -5.1,-2.6 -1.7,-0.9 -3.3,-1.8 -4.9,-2.7 -1.6,-0.9 -3.1,-1.7 -4.6,-2.6 -1.5,-0.9 -2.9,-1.8 -4.3,-2.6 -1.4,-0.8 -2.7,-1.6 -4,-2.5 -2.5,-1.7 -4.9,-3.3 -7.1,-4.8 -2.1,-1.6 -4.1,-3 -5.8,-4.3 -0.9,-0.7 -1.7,-1.3 -2.5,-1.9 -0.8,-0.6 -1.4,-1.2 -2.1,-1.7 -1.3,-1.1 -2.4,-2 -3.3,-2.8 -1.7,-1.7 -2.6,-2.5 -2.6,-2.5 z"/><ellipse style="fill:#fbfaed" id="ellipse32" cx="1344.3" cy="658.9" rx="10.8" ry="17.1" transform="matrix(0.8505,-0.526,0.526,0.8505,-145.5633,805.61)"/></g><path style="fill:#612e1d;stroke-width:.0132414" id="path36" d="m 9.0145686,137.21048 c -0.00402,0 -0.00805,0 -0.012027,0 -0.064179,-0.006 -0.1109769,-0.063 -0.1042953,-0.12588 0.1136571,-1.05559 0.6137417,-2.03643 1.4079837,-2.7642 0.0468,-0.0433 0.121682,-0.0406 0.165804,0.005 0.0441,0.0459 0.04145,0.11934 -0.0053,0.16261 -0.752794,0.68974 -1.2261345,1.62075 -1.3344439,2.62126 -0.00805,0.0564 -0.058828,0.10101 -0.117661,0.10101 z"/><path style="fill:#612e1d;stroke-width:.0132414" id="path38" d="m 13.389617,141.98619 c -0.704661,0 -1.378571,-0.15473 -2.005679,-0.45895 -0.597692,-0.2911 -1.131201,-0.71597 -1.545705,-1.2313 -0.0401,-0.0498 -0.03077,-0.12195 0.02005,-0.16129 0.05081,-0.0393 0.124353,-0.0302 0.164468,0.0197 0.818313,1.01887 2.045789,1.60371 3.366861,1.60371 1.36787,0 2.620753,-0.61762 3.437731,-1.69419 0.03879,-0.0512 0.112313,-0.0616 0.163127,-0.0236 0.05215,0.038 0.06285,0.11015 0.02406,0.15998 -0.411832,0.54287 -0.953359,0.99133 -1.564425,1.29948 -0.641817,0.32258 -1.334443,0.48649 -2.060498,0.48649 z"/><path style="fill:#612e1d;stroke-width:.0132414" id="path40" d="m 17.764667,137.21048 c -0.05883,0 -0.109651,-0.0433 -0.11633,-0.10224 -0.102959,-0.94938 -0.540195,-1.84629 -1.232821,-2.52423 -0.04546,-0.0446 -0.04546,-0.11802 0,-0.1626 0.04546,-0.0446 0.120335,-0.0446 0.165804,0 0.730064,0.71466 1.191369,1.66009 1.29968,2.66192 0.0067,0.063 -0.0401,0.11932 -0.104303,0.12588 -0.004,10e-4 -0.008,10e-4 -0.01198,10e-4 z"/><g id="g88" transform="matrix(0.01337118,0,0,0.01311287,-5.5399643,126.17993)"><g id="g86"><path style="fill:#612e1d" id="path60" d="m 1119.3,1149.8 -1.6,-1.8 25.3,-22.5 12.3,13.9 -1.6,1.4 -10.8,-12.1 -10.7,9.6 10.2,11.4 -1.6,1.5 -10.2,-11.4 z"/><path style="fill:#612e1d" id="path62" d="m 1159.3,1169.9 -9.8,11 -1.8,-1.6 22.6,-25.3 6,5.4 c 3.1,2.8 4.9,5.4 5.4,7.9 0.5,2.5 -0.3,4.9 -2.4,7.2 -1.5,1.7 -3.2,2.7 -5.2,3.1 -1.9,0.4 -4,0 -6.3,-1.1 l -3.4,17.7 -2.1,-1.9 3.3,-16.8 z m 1.4,-1.5 4.8,4.3 c 2.1,1.9 4.2,2.9 6.2,3 2,0.1 3.9,-0.8 5.5,-2.6 1.7,-1.9 2.4,-3.8 2,-5.7 -0.4,-1.9 -1.9,-4 -4.5,-6.3 l -4.2,-3.7 z"/><path style="fill:#612e1d" id="path64" d="m 1199.7,1220.4 -15.2,-10.6 19.4,-27.8 15.2,10.6 -1.2,1.8 -13.3,-9.3 -7.3,10.5 12.5,8.7 -1.2,1.8 -12.5,-8.7 -8.3,11.9 13.3,9.3 z"/><path style="fill:#612e1d" id="path66" d="m 1243.6,1235.8 c -1.3,2.5 -3.3,4 -5.9,4.4 -2.6,0.5 -5.4,-0.1 -8.5,-1.7 -3.6,-2 -6.2,-3.9 -7.7,-5.7 l 1.1,-2.1 c 1.7,2.1 4.2,4 7.5,5.8 2.5,1.3 4.7,1.8 6.7,1.5 2,-0.4 3.6,-1.4 4.5,-3.3 0.6,-1.1 0.9,-2.2 0.8,-3.2 -0.1,-1 -0.5,-2.1 -1.2,-3.3 -0.7,-1.2 -2,-2.7 -3.7,-4.5 -2.5,-2.7 -4,-5 -4.5,-6.8 -0.5,-1.8 -0.2,-3.8 0.9,-5.8 1.2,-2.2 3.1,-3.6 5.6,-4.1 2.5,-0.5 5.1,0 7.9,1.5 2.8,1.5 5.2,3.5 7,5.8 l -1.7,1.4 c -1.9,-2.4 -4,-4.2 -6.3,-5.4 -2.2,-1.2 -4.2,-1.6 -6.1,-1.3 -1.9,0.3 -3.3,1.4 -4.2,3.1 -0.6,1.1 -0.9,2.1 -0.9,3 0,0.9 0.3,1.9 0.9,3 0.6,1.1 1.8,2.6 3.6,4.6 1.9,2.1 3.2,3.8 4,5.2 0.8,1.4 1.2,2.7 1.2,4 0.1,1.2 -0.3,2.5 -1,3.9 z"/><path style="fill:#612e1d" id="path68" d="m 1286.8,1263.6 -2.2,-0.9 6,-15.6 -18.5,-7.1 -6,15.6 -2.2,-0.8 12.1,-31.7 2.2,0.8 -5.4,14.1 18.5,7.1 5.4,-14.1 2.2,0.9 z"/><path style="fill:#612e1d" id="path70" d="m 1344.8,1270.1 c 0.3,-2.1 1.1,-3.8 2.5,-5.1 1.3,-1.3 3.7,-2.6 7,-3.8 l -1.4,-2.1 c -0.8,-1.2 -1.4,-2.4 -1.8,-3.5 -0.3,-1.1 -0.4,-2.2 -0.3,-3.4 0.3,-2.2 1.3,-3.8 3,-4.9 1.7,-1.1 3.7,-1.4 6.2,-1.1 2.4,0.4 4.2,1.3 5.4,2.7 1.2,1.4 1.6,3.3 1.3,5.4 -0.2,1.6 -1,3 -2.3,4.2 -1.3,1.2 -3.4,2.4 -6.5,3.6 l 8.8,12 c 1.1,-1 2.1,-2 2.9,-3.2 0.9,-1.2 1.7,-2.7 2.4,-4.4 l 2.2,0.3 c -1.5,3.6 -3.6,6.6 -6.2,9.1 l 5.2,7.1 -3.1,-0.5 -3.8,-5.2 c -1.6,1.2 -3,2 -4.2,2.5 -1.2,0.5 -2.5,0.8 -3.8,0.9 -1.4,0.1 -2.9,0.1 -4.5,-0.2 -3.2,-0.5 -5.6,-1.6 -7.2,-3.5 -1.6,-1.7 -2.2,-4 -1.8,-6.9 z m 9.4,8.5 c 2,0.3 3.8,0.2 5.5,-0.2 1.7,-0.4 3.5,-1.3 5.3,-2.6 l -9.4,-12.8 c -2.2,0.8 -3.9,1.5 -4.9,2.1 -1,0.6 -1.8,1.4 -2.4,2.2 -0.6,0.8 -0.9,1.9 -1.1,3.1 -0.3,2.2 0.1,4 1.4,5.5 1.2,1.4 3.1,2.3 5.6,2.7 z m -0.9,-26.1 c -0.2,1.2 0,2.4 0.4,3.5 0.5,1.1 1.4,2.6 2.9,4.5 2.6,-0.9 4.5,-1.9 5.6,-2.9 1.1,-1 1.8,-2.2 2,-3.7 0.2,-1.4 -0.1,-2.7 -0.9,-3.7 -0.8,-1 -2,-1.7 -3.7,-1.9 -1.7,-0.3 -3.2,0 -4.3,0.7 -1.1,0.8 -1.8,1.9 -2,3.5 z"/><path style="fill:#612e1d" id="path72" d="m 1448.8,1259.5 c 0.2,3.3 -0.8,5.8 -2.9,7.7 -2.1,1.9 -5.2,2.9 -9.3,3.2 l -5.2,0.3 0.8,14 -2.4,0.1 -2,-33.9 8.3,-0.5 c 8.1,-0.4 12.3,2.7 12.7,9.1 z m -17.6,9.2 4.7,-0.3 c 3.8,-0.2 6.5,-1 8.2,-2.4 1.6,-1.4 2.4,-3.4 2.2,-6.3 -0.2,-2.6 -1.1,-4.5 -2.7,-5.7 -1.7,-1.2 -4.2,-1.6 -7.6,-1.5 l -5.6,0.3 z"/><path style="fill:#612e1d" id="path74" d="m 1476.7,1265.4 2.6,14.5 -2.3,0.4 -6.1,-33.4 7.9,-1.4 c 4.1,-0.8 7.3,-0.5 9.6,0.6 2.3,1.2 3.7,3.3 4.2,6.4 0.4,2.2 0.2,4.2 -0.7,6 -0.9,1.8 -2.5,3.2 -4.8,4.3 l 11.8,13.6 -2.8,0.5 -11.2,-13 z m -0.4,-2 6.4,-1.2 c 2.8,-0.5 4.9,-1.5 6.2,-3.1 1.3,-1.5 1.8,-3.5 1.3,-6 -0.5,-2.5 -1.6,-4.3 -3.3,-5.1 -1.7,-0.9 -4.3,-1 -7.8,-0.4 l -5.5,1 z"/><path style="fill:#612e1d" id="path76" d="m 1541.4,1264.5 -17.7,5.5 -10,-32.4 17.7,-5.5 0.6,2.1 -15.4,4.8 3.8,12.3 14.6,-4.5 0.6,2.1 -14.6,4.5 4.3,13.9 15.4,-4.8 z"/><path style="fill:#612e1d" id="path78" d="m 1580.8,1248.6 -24.7,-23 -0.2,0.1 c 0.9,1.7 1.8,3.4 2.7,5.3 l 10.8,23 -2.1,1 -14.4,-30.7 3.3,-1.6 23.5,21.9 0.1,-0.1 -1.8,-32.1 3.2,-1.5 14.4,30.7 -2.2,1 -10.9,-23.3 c -0.8,-1.6 -1.5,-3.3 -2.1,-5.2 l -0.2,0.1 1.8,33.7 z"/><path style="fill:#612e1d" id="path80" d="m 1621,1227 -17.9,-28.8 2,-1.2 17.9,28.8 z"/><path style="fill:#612e1d" id="path82" d="m 1645.8,1167.6 13.5,17.3 c 2.4,3.1 3.4,6.2 3,9.3 -0.4,3.1 -2.2,5.9 -5.4,8.4 -3.1,2.4 -6.2,3.4 -9.3,3.1 -3.1,-0.3 -5.9,-2.1 -8.3,-5.2 l -13.4,-17.2 1.9,-1.5 13.5,17.3 c 2,2.6 4.3,4 6.8,4.3 2.5,0.3 5.1,-0.5 7.7,-2.6 2.5,-2 4,-4.2 4.3,-6.7 0.3,-2.5 -0.5,-5 -2.5,-7.5 l -13.6,-17.5 z"/><path style="fill:#612e1d" id="path84" d="m 1698.9,1164 -31.4,-12.5 -0.1,0.1 c 1.5,1.2 2.9,2.5 4.4,3.9 l 18.4,17.5 -1.6,1.6 -24.5,-23.4 2.5,-2.7 29.9,11.9 0.1,-0.1 -13.3,-29.3 2.5,-2.6 24.5,23.4 -1.6,1.7 -18.6,-17.7 c -1.3,-1.2 -2.6,-2.6 -3.8,-4 l -0.1,0.1 13.9,30.8 z"/></g></g></g></svg>