<svg width="50" height="60" viewBox="0 0 50 60" fill="none" xmlns="http://www.w3.org/2000/svg">
<path d="M44.6429 3.75H5.35714C2.39955 3.75 0 6.26953 0 9.375V50.625C0 53.7305 2.39955 56.25 5.35714 56.25H44.6429C47.6004 56.25 50 53.7305 50 50.625V9.375C50 6.26953 47.6004 3.75 44.6429 3.75ZM39.1853 22.3594C39.2076 22.6875 39.2076 23.0273 39.2076 23.3555C39.2076 33.5156 31.8415 45.2227 18.3817 45.2227C14.2299 45.2227 10.3795 43.957 7.14286 41.7773C7.73437 41.8477 8.30357 41.8711 8.90625 41.8711C12.3326 41.8711 15.4799 40.6523 17.9911 38.5898C14.7768 38.5195 12.0759 36.3047 11.1496 33.2578C12.2768 33.4336 13.2924 33.4336 14.4531 33.1172C11.1049 32.4023 8.59375 29.3086 8.59375 25.5703V25.4766C9.56473 26.0508 10.7031 26.4023 11.8973 26.4492C10.8933 25.748 10.0703 24.7967 9.50164 23.6803C8.93299 22.5638 8.63642 21.3169 8.63839 20.0508C8.63839 18.6211 8.99554 17.3086 9.6317 16.1719C13.2366 20.8359 18.6496 23.8828 24.721 24.2109C23.683 18.9961 27.3996 14.7656 31.8638 14.7656C33.9732 14.7656 35.8705 15.6914 37.2098 17.1914C38.8616 16.8633 40.4464 16.2187 41.8527 15.3398C41.3058 17.1211 40.1563 18.6211 38.6384 19.5703C40.1116 19.4063 41.5402 18.9727 42.8571 18.375C41.8638 19.9102 40.6138 21.2695 39.1853 22.3594Z" fill="black"/>
</svg>
