<svg xmlns="http://www.w3.org/2000/svg" width="50" height="50" fill="none" viewBox="0 0 50 50"><path fill="#000" d="M42 14.25C36 5 23.75 2.25 14.25 8C5 13.75 2 26.25 8 35.5L8.5 36.25L6.5 43.75L14 41.75L14.75 42.25C18 44 21.5 45 25 45C28.75 45 32.5 44 35.75 42C45 36 47.75 23.75 42 14.25V14.25ZM36.75 33.5C35.75 35 34.5 36 32.75 36.25C31.75 36.25 30.5 36.75 25.5 34.75C21.25 32.75 17.75 29.5 15.25 25.75C13.75 24 13 21.75 12.75 19.5C12.75 17.5 13.5 15.75 14.75 14.5C15.25 14 15.75 13.75 16.25 13.75H17.5C18 13.75 18.5 13.75 18.75 14.75C19.25 16 20.5 19 20.5 19.25C20.75 19.5 20.75 20 20.5 20.25C20.75 20.75 20.5 21.25 20.25 21.5C20 21.75 19.75 22.25 19.5 22.5C19 22.75 18.75 23.25 19 23.75C20 25.25 21.25 26.75 22.5 28C24 29.25 25.5 30.25 27.25 31C27.75 31.25 28.25 31.25 28.5 30.75C28.75 30.25 30 29 30.5 28.5C31 28 31.25 28 31.75 28.25L35.75 30.25C36.25 30.5 36.75 30.75 37 31C37.25 31.75 37.25 32.75 36.75 33.5V33.5Z"/></svg>